<svg xmlns="http://www.w3.org/2000/svg" viewBox="0 0 64 64" role="img" aria-label="Piscinova">
  <defs>
    <linearGradient id="bg" x1="0" y1="0" x2="1" y2="1">
      <stop offset="0%" stop-color="#0f3d56" />
      <stop offset="55%" stop-color="#0284c7" />
      <stop offset="100%" stop-color="#1d4ed8" />
    </linearGradient>
    <linearGradient id="wave" x1="0" y1="0" x2="1" y2="1">
      <stop offset="0%" stop-color="#67e8f9" />
      <stop offset="100%" stop-color="#dbeafe" />
    </linearGradient>
    <linearGradient id="sun" x1="0" y1="0" x2="1" y2="1">
      <stop offset="0%" stop-color="#fde047" />
      <stop offset="100%" stop-color="#fb923c" />
    </linearGradient>
  </defs>
  <rect width="64" height="64" rx="18" fill="url(#bg)" />
  <circle cx="45" cy="18" r="7" fill="url(#sun)" />
  <path
    d="M8 38c7 5 14 5 22-1 8-5 16-5 26 1-9 9-19 11-30 5-6-4-12-5-18-5Z"
    fill="url(#wave)"
  />
  <path
    d="M11 29c6 3 13 3 20-2 8-5 15-5 24-1-8 6-17 7-26 3-6-3-12-3-18 0Z"
    fill="#7dd3fc"
    opacity="0.95"
  />
  <path
    d="M12 48c8 3 16 3 24 0 8-3 16-3 24 0"
    fill="none"
    stroke="rgba(255,255,255,0.42)"
    stroke-linecap="round"
    stroke-width="2.4"
  />
</svg>
